# Blender v2.90.0 OBJ File: 'Torch.blend'
# www.blender.org
mtllib MOD_Torch.mtl
o Torch
v 0.697346 8.083972 -0.697346
v 0.666667 5.250638 -0.666667
v 0.697346 8.083972 0.697346
v 0.666667 5.250638 0.666667
v -0.697346 8.083972 -0.697346
v -0.666667 5.250638 -0.666667
v -0.697346 8.083972 0.697346
v -0.666667 5.250638 0.666667
v 0.592039 9.583972 0.592038
v -0.592038 9.583973 0.592039
v 0.592039 9.583972 -0.592038
v -0.592039 9.583972 -0.592038
v -0.500000 0.833972 -0.500000
v -0.500000 0.833971 0.500000
v 0.500000 0.833972 -0.500000
v 0.500000 0.833971 0.500000
v -0.916667 5.250638 0.000000
v 0.000000 5.250638 -0.916667
v 0.670502 6.979805 -0.670502
v -0.670502 6.979805 0.670502
v 0.670502 6.979805 0.670502
v -0.670502 6.979805 -0.670502
v 0.000000 8.083972 0.958851
v 0.958851 8.083972 0.000000
v 0.000000 5.250638 0.916667
v -0.958851 8.083972 0.000000
v -0.000000 8.083972 -0.958851
v 0.916667 5.250638 -0.000000
v 0.000000 9.693541 0.731220
v 0.731221 9.693541 -0.000000
v -0.731220 9.693541 -0.000000
v 0.000000 9.693541 -0.731221
v 0.720036 9.020700 -0.720036
v 0.720036 9.020700 0.720036
v -0.720036 9.020700 -0.720036
v -0.720036 9.020700 0.720036
v -0.609568 0.450484 0.000000
v -0.000000 0.450484 -0.609568
v -0.000000 0.450483 0.609568
v 0.609568 0.450484 0.000000
v 0.638117 2.701256 -0.638117
v -0.638117 2.701256 -0.638117
v -0.638117 2.701256 0.638117
v 0.638117 2.701256 0.638117
v 0.992868 9.031504 -0.000000
v -0.000000 6.979805 0.921940
v -0.921940 6.979805 -0.000000
v -0.000000 2.663447 -0.878086
v 0.921940 6.979805 0.000000
v 0.000000 6.979805 -0.921940
v 0.000000 9.923479 0.000000
v -0.000000 9.031504 -0.992868
v 0.000000 9.031504 0.992868
v -0.992868 9.031504 0.000000
v 0.000000 -0.354300 0.000000
v -0.000000 2.663447 0.878086
v -0.878086 2.663447 0.000000
v 0.878086 2.663447 0.000000
vt 0.463994 0.169046
vt 0.478243 0.169046
vt 0.478243 0.186470
vt 0.463531 0.186272
vt 0.492491 0.169046
vt 0.492955 0.186272
vt 0.490339 0.196630
vt 0.478243 0.198645
vt 0.466146 0.196630
vt 0.491864 0.116943
vt 0.491943 0.148741
vt 0.478243 0.148741
vt 0.478243 0.116943
vt 0.492491 0.169046
vt 0.478243 0.169046
vt 0.463994 0.169046
vt 0.464543 0.148741
vt 0.464621 0.116943
vt 0.478243 0.148741
vt 0.478243 0.116943
vt 0.478243 0.169046
vt 0.492491 0.169046
vt 0.491943 0.148741
vt 0.491864 0.116943
vt 0.478243 0.069367
vt 0.491281 0.070062
vt 0.488459 0.035724
vt 0.478243 0.028672
vt 0.465204 0.070062
vt 0.468026 0.035724
vt 0.491864 0.116943
vt 0.491943 0.148741
vt 0.478243 0.148741
vt 0.478243 0.116943
vt 0.464543 0.148741
vt 0.464621 0.116943
vt 0.464621 0.116943
vt 0.464543 0.148741
vt 0.478243 0.148741
vt 0.478243 0.116943
vt 0.463994 0.169046
vt 0.478243 0.169046
vt 0.490339 0.142130
vt 0.478243 0.144689
vt 0.478243 0.131243
vt 0.493183 0.131243
vt 0.466146 0.142130
vt 0.463302 0.131243
vt 0.466146 0.120356
vt 0.478243 0.117796
vt 0.490339 0.120356
vt 0.478243 0.186470
vt 0.463531 0.186272
vt 0.466146 0.196630
vt 0.478243 0.198645
vt 0.478243 0.186470
vt 0.463531 0.186272
vt 0.492955 0.186272
vt 0.490339 0.196630
vt 0.478243 0.198645
vt 0.466146 0.196630
vt 0.478243 0.186470
vt 0.492955 0.186272
vt 0.478243 0.198645
vt 0.490339 0.196630
vt 0.478243 0.013873
vt 0.465788 0.028672
vt 0.490698 0.028672
vt 0.478243 0.028672
vt 0.468026 0.035724
vt 0.465788 0.028672
vt 0.478243 0.028672
vt 0.468026 0.035724
vt 0.478243 0.069367
vt 0.465204 0.070062
vt 0.478243 0.028672
vt 0.491281 0.070062
vt 0.488459 0.035724
vt 0.478243 0.069367
vt 0.491281 0.070062
vt 0.488459 0.035724
vt 0.478243 0.069367
vt 0.465204 0.070062
vn 0.9353 -0.0324 0.3524
vn 0.9353 -0.0324 -0.3524
vn 0.8960 0.3174 -0.3105
vn 0.8960 0.3174 0.3105
vn 0.3511 -0.0029 0.9363
vn 0.3510 -0.0313 0.9359
vn -0.3510 -0.0313 0.9359
vn -0.3511 -0.0029 0.9363
vn -0.9363 -0.0029 0.3511
vn -0.9359 -0.0313 0.3510
vn -0.9359 -0.0313 -0.3510
vn -0.9363 -0.0029 -0.3511
vn 0.3272 -0.1047 -0.9391
vn -0.3272 -0.1047 -0.9391
vn 0.9363 -0.0029 -0.3511
vn 0.9359 -0.0313 -0.3510
vn 0.9359 -0.0313 0.3510
vn 0.9363 -0.0029 0.3511
vn -0.3511 -0.0029 -0.9363
vn -0.3510 -0.0313 -0.9359
vn 0.3510 -0.0313 -0.9359
vn 0.3511 -0.0029 -0.9363
vn 0.2657 0.9267 -0.2657
vn -0.2657 0.9267 -0.2657
vn -0.2657 0.9267 0.2657
vn 0.2657 0.9267 0.2657
vn 0.3524 -0.0324 -0.9353
vn -0.3524 -0.0324 -0.9353
vn -0.3105 0.3174 -0.8960
vn 0.3105 0.3174 -0.8960
vn -0.3524 -0.0324 0.9353
vn 0.3524 -0.0324 0.9353
vn 0.3105 0.3174 0.8960
vn -0.3105 0.3174 0.8960
vn -0.9353 -0.0324 -0.3524
vn -0.9353 -0.0324 0.3524
vn -0.8960 0.3174 0.3105
vn -0.8960 0.3174 -0.3105
vn -0.6077 -0.5114 -0.6077
vn 0.6077 -0.5114 -0.6077
vn 0.6077 -0.5114 0.6077
vn -0.6077 -0.5114 0.6077
vn -0.3272 -0.1047 0.9391
vn 0.3272 -0.1047 0.9391
vn -0.9391 -0.1047 -0.3272
vn -0.9391 -0.1047 0.3272
vn 0.9391 -0.1047 0.3272
vn 0.9391 -0.1047 -0.3272
vn 0.3519 -0.0142 0.9359
vn 0.9359 -0.0142 0.3519
vn 0.9359 -0.0142 -0.3519
vn 0.3519 -0.0142 -0.9359
vn -0.3519 -0.0142 -0.9359
vn -0.9359 -0.0142 -0.3519
vn -0.9359 -0.0142 0.3519
vn -0.3519 -0.0142 0.9359
g Torch_Torch_Material
usemtl Material
s off
f 3/1/1 24/2/1 45/3/1 34/4/1
f 24/2/2 1/5/2 33/6/2 45/3/2
f 45/3/3 33/6/3 11/7/3 30/8/3
f 34/4/4 45/3/4 30/8/4 9/9/4
f 4/10/5 21/11/5 46/12/5 25/13/5
f 21/11/6 3/14/6 23/15/6 46/12/6
f 46/12/7 23/15/7 7/16/7 20/17/7
f 25/13/8 46/12/8 20/17/8 8/18/8
f 8/18/9 20/17/9 47/19/9 17/20/9
f 20/17/10 7/16/10 26/21/10 47/19/10
f 47/19/11 26/21/11 5/22/11 22/23/11
f 17/20/12 47/19/12 22/23/12 6/24/12
f 48/25/13 41/26/13 15/27/13 38/28/13
f 42/29/14 48/25/14 38/28/14 13/30/14
f 2/31/15 19/32/15 49/33/15 28/34/15
f 19/32/16 1/5/16 24/2/16 49/33/16
f 49/33/17 24/2/17 3/1/17 21/35/17
f 28/34/18 49/33/18 21/35/18 4/36/18
f 6/37/19 22/38/19 50/39/19 18/40/19
f 22/38/20 5/41/20 27/42/20 50/39/20
f 50/39/21 27/42/21 1/5/21 19/32/21
f 18/40/22 50/39/22 19/32/22 2/31/22
f 11/43/23 32/44/23 51/45/23 30/46/23
f 32/44/24 12/47/24 31/48/24 51/45/24
f 51/45/25 31/48/25 10/49/25 29/50/25
f 30/46/26 51/45/26 29/50/26 9/51/26
f 1/5/27 27/42/27 52/52/27 33/6/27
f 27/42/28 5/41/28 35/53/28 52/52/28
f 52/52/29 35/53/29 12/54/29 32/55/29
f 33/6/30 52/52/30 32/55/30 11/7/30
f 7/16/31 23/15/31 53/56/31 36/57/31
f 23/15/32 3/14/32 34/58/32 53/56/32
f 53/56/33 34/58/33 9/59/33 29/60/33
f 36/57/34 53/56/34 29/60/34 10/61/34
f 5/22/35 26/21/35 54/62/35 35/63/35
f 26/21/36 7/16/36 36/57/36 54/62/36
f 54/62/37 36/57/37 10/61/37 31/64/37
f 35/63/38 54/62/38 31/64/38 12/65/38
f 13/30/39 38/28/39 55/66/39 37/67/39
f 38/28/40 15/27/40 40/68/40 55/66/40
f 55/66/41 40/69/41 16/70/41 39/71/41
f 37/72/42 55/66/42 39/71/42 14/73/42
f 56/74/43 43/75/43 14/73/43 39/76/43
f 44/77/44 56/74/44 39/76/44 16/78/44
f 57/79/45 42/80/45 13/81/45 37/72/45
f 43/75/46 57/79/46 37/72/46 14/73/46
f 58/82/47 44/83/47 16/70/47 40/69/47
f 41/26/48 58/82/48 40/69/48 15/27/48
f 25/13/49 56/74/49 44/77/49 4/10/49
f 28/34/50 4/36/50 44/83/50 58/82/50
f 28/34/51 58/82/51 41/26/51 2/31/51
f 18/40/52 2/31/52 41/26/52 48/25/52
f 18/40/53 48/25/53 42/29/53 6/37/53
f 17/20/54 6/24/54 42/80/54 57/79/54
f 17/20/55 57/79/55 43/75/55 8/18/55
f 25/13/56 8/18/56 43/75/56 56/74/56
